<?xml version="1.0" standalone="no"?>
<!DOCTYPE svg PUBLIC "-//W3C//DTD SVG 20010904//EN"
 "http://www.w3.org/TR/2001/REC-SVG-20010904/DTD/svg10.dtd">
<svg version="1.0" xmlns="http://www.w3.org/2000/svg"
 width="497.000000pt" height="489.000000pt" viewBox="0 0 497.000000 489.000000"
 preserveAspectRatio="xMidYMid meet">

<g transform="translate(0.000000,489.000000) scale(0.100000,-0.100000)"
fill="#000000" stroke="none">
<path d="M2493 4813 c15 -2 37 -2 50 0 12 2 0 4 -28 4 -27 0 -38 -2 -22 -4z"/>
<path d="M2618 4803 c7 -3 16 -2 19 1 4 3 -2 6 -13 5 -11 0 -14 -3 -6 -6z"/>
<path d="M2223 4793 c9 -2 23 -2 30 0 6 3 -1 5 -18 5 -16 0 -22 -2 -12 -5z"/>
<path d="M2378 4793 c7 -3 16 -2 19 1 4 3 -2 6 -13 5 -11 0 -14 -3 -6 -6z"/>
<path d="M2718 4783 c6 -2 18 -2 25 0 6 3 1 5 -13 5 -14 0 -19 -2 -12 -5z"/>
<path d="M2848 4773 c7 -3 16 -2 19 1 4 3 -2 6 -13 5 -11 0 -14 -3 -6 -6z"/>
<path d="M2993 4753 c9 -2 25 -2 35 0 9 3 1 5 -18 5 -19 0 -27 -2 -17 -5z"/>
<path d="M3078 4733 c7 -3 16 -2 19 1 4 3 -2 6 -13 5 -11 0 -14 -3 -6 -6z"/>
<path d="M1458 4643 c6 -2 18 -2 25 0 6 3 1 5 -13 5 -14 0 -19 -2 -12 -5z"/>
<path d="M1369 4626 c6 -7 7 -17 3 -22 -4 -4 1 -2 11 5 21 17 21 18 -4 24 -15
4 -18 2 -10 -7z"/>
<path d="M1435 4610 c3 -5 12 -7 20 -3 21 7 19 13 -6 13 -11 0 -18 -4 -14 -10z"/>
<path d="M2364 4516 c-17 -8 -41 -30 -53 -49 -12 -19 -40 -52 -62 -72 -39 -35
-42 -36 -64 -21 -14 9 -27 16 -30 16 -3 0 -19 -28 -35 -62 -35 -75 -65 -113
-102 -127 -32 -12 -85 -109 -96 -175 -6 -31 -14 -44 -35 -54 -33 -16 -35 -42
-8 -103 23 -51 77 -91 92 -68 4 8 14 47 20 87 11 67 39 125 53 111 5 -5 -38
-182 -49 -199 -3 -5 -21 -14 -41 -20 -33 -11 -39 -10 -77 17 -23 16 -52 46
-63 67 -28 49 -96 96 -140 96 -18 0 -36 -5 -39 -11 -5 -7 -29 -8 -69 -4 -47 5
-71 3 -105 -11 -37 -15 -64 -16 -202 -10 -158 6 -160 6 -168 -16 -4 -12 -4
-41 2 -66 5 -24 7 -101 5 -170 -3 -98 -8 -135 -22 -162 -31 -59 -84 -106 -148
-131 -73 -29 -132 -78 -160 -133 -11 -22 -41 -72 -67 -111 -88 -135 -117 -229
-126 -415 -7 -139 6 -396 26 -510 38 -222 128 -452 250 -645 156 -243 257
-357 407 -455 31 -20 84 -62 117 -92 106 -95 148 -122 324 -208 161 -78 343
-122 357 -86 5 12 10 13 26 5 12 -7 40 -9 68 -5 26 4 71 1 99 -5 41 -8 55 -8
67 2 17 14 88 13 147 -2 29 -8 42 -7 59 6 31 21 37 19 49 -12 9 -26 11 -26 21
-10 7 14 17 17 35 12 18 -4 29 -1 39 12 13 17 16 16 41 -15 16 -18 35 -32 43
-32 24 1 50 26 50 48 0 25 30 44 49 32 8 -4 17 -25 20 -46 9 -57 45 -64 147
-29 43 15 115 30 159 34 44 4 89 13 100 19 11 6 49 24 85 40 64 29 263 156
363 232 29 22 77 59 108 82 84 65 231 246 318 393 51 85 154 303 177 373 14
41 31 86 39 102 26 51 84 323 95 446 8 95 7 156 -4 285 -14 150 -26 213 -72
369 -9 30 -22 78 -28 105 -11 45 -17 53 -60 76 -98 54 -121 97 -100 194 22
102 29 83 -115 299 -14 22 -69 88 -123 146 -75 84 -122 124 -216 188 -186 126
-268 155 -427 150 -75 -3 -85 -1 -155 34 -84 42 -273 197 -278 229 -8 47 -62
36 -131 -25 -27 -24 -59 -47 -70 -51 -32 -10 -72 15 -115 73 l-39 52 -66 0
c-36 -1 -80 -7 -97 -14z m-541 -1420 c4 -27 4 -72 0 -100 l-8 -51 -75 -3 -75
-3 2 -487 c2 -268 1 -497 -2 -509 -5 -20 -12 -23 -53 -23 l-47 0 3 -75 c2 -41
1 -86 -2 -100 l-6 -25 -205 0 -204 0 -7 46 c-3 25 -4 70 0 100 l6 54 -49 0
c-57 0 -61 7 -61 105 0 108 -2 105 111 105 67 0 100 -4 106 -12 4 -7 7 -55 6
-106 l-1 -93 95 3 95 3 1 507 2 508 -72 0 c-43 0 -75 5 -79 11 -10 16 -10 171
0 187 6 9 67 12 259 10 l252 -3 8 -49z m1472 -459 l0 -507 35 0 35 0 -3 75
c-5 97 2 125 31 125 l22 0 -2 377 c-2 208 0 393 3 411 l5 33 77 -3 77 -3 2
-305 c1 -168 2 -351 3 -407 l0 -103 25 0 c22 0 25 -4 27 -42 1 -24 0 -69 -1
-100 l-3 -58 34 0 33 0 -2 477 c-2 263 0 493 3 511 l5 33 102 -3 102 -3 0
-405 0 -405 -35 -3 -35 -3 2 -181 c2 -193 -4 -228 -37 -228 -19 0 -21 -4 -14
-45 3 -25 3 -70 -1 -100 l-6 -55 -79 0 -78 0 -7 50 c-4 27 -4 72 0 99 6 46 5
50 -16 53 -31 4 -41 46 -35 136 l6 72 -73 0 -73 0 4 -70 c6 -100 -3 -140 -31
-140 -22 0 -23 -3 -19 -65 2 -35 1 -80 -2 -100 l-7 -35 -79 0 -80 0 0 100 c0
92 -1 100 -19 100 -11 0 -23 5 -27 12 -4 6 -7 99 -7 205 l0 193 -33 0 c-22 0
-34 5 -38 18 -7 23 -7 762 0 785 5 16 17 17 107 15 l102 -3 0 -508z m-512 449
c4 -27 4 -72 0 -100 l-8 -51 -75 -3 -75 -3 2 -487 c2 -268 1 -497 -2 -509 -5
-20 -12 -23 -53 -23 l-47 0 3 -75 c2 -41 1 -86 -2 -100 l-6 -25 -205 0 -204 0
-7 46 c-3 25 -4 70 0 100 l6 54 -49 0 c-57 0 -61 7 -61 105 0 108 -2 105 111
105 67 0 100 -4 106 -12 4 -7 7 -55 6 -106 l-1 -93 95 3 95 3 1 507 2 508 -72
0 c-43 0 -75 5 -79 11 -10 16 -10 171 0 187 6 9 67 12 259 10 l252 -3 8 -49z"/>
<path d="M1185 4328 l-40 -43 43 40 c39 36 47 45 39 45 -2 0 -21 -19 -42 -42z"/>
<path d="M1099 4253 c-13 -16 -12 -17 4 -4 9 7 17 15 17 17 0 8 -8 3 -21 -13z"/>
<path d="M4000 4266 c0 -2 8 -10 18 -17 15 -13 16 -12 3 4 -13 16 -21 21 -21
13z"/>
<path d="M1039 4183 l-24 -28 28 24 c25 23 32 31 24 31 -2 0 -14 -12 -28 -27z"/>
<path d="M4120 4177 c0 -2 15 -16 33 -33 l32 -29 -29 33 c-28 30 -36 37 -36
29z"/>
<path d="M959 4113 l-34 -38 38 34 c34 33 42 41 34 41 -2 0 -19 -17 -38 -37z"/>
<path d="M879 4023 c-13 -16 -12 -17 4 -4 9 7 17 15 17 17 0 8 -8 3 -21 -13z"/>
<path d="M511 3664 c0 -11 3 -14 6 -6 3 7 2 16 -1 19 -3 4 -6 -2 -5 -13z"/>
<path d="M4710 3116 c0 -2 8 -10 18 -17 15 -13 16 -12 3 4 -13 16 -21 21 -21
13z"/>
<path d="M4762 2830 c0 -14 2 -19 5 -12 2 6 2 18 0 25 -3 6 -5 1 -5 -13z"/>
<path d="M4825 2660 c10 -11 20 -20 23 -20 3 0 -3 9 -13 20 -10 11 -20 20 -23
20 -3 0 3 -9 13 -20z"/>
<path d="M163 2570 c0 -30 2 -43 4 -27 2 15 2 39 0 55 -2 15 -4 2 -4 -28z"/>
<path d="M4862 2590 c0 -14 2 -19 5 -12 2 6 2 18 0 25 -3 6 -5 1 -5 -13z"/>
<path d="M340 2316 c0 -2 8 -10 18 -17 15 -13 16 -12 3 4 -13 16 -21 21 -21
13z"/>
<path d="M4772 2265 c0 -16 2 -22 5 -12 2 9 2 23 0 30 -3 6 -5 -1 -5 -18z"/>
<path d="M4730 2046 c0 -8 4 -17 9 -20 5 -4 7 3 4 14 -6 23 -13 26 -13 6z"/>
<path d="M4780 1995 c13 -14 26 -25 28 -25 3 0 -5 11 -18 25 -13 14 -26 25
-28 25 -3 0 5 -11 18 -25z"/>
<path d="M394 1868 l-19 -23 23 19 c21 18 27 26 19 26 -2 0 -12 -10 -23 -22z"/>
<path d="M154 1368 l-19 -23 23 19 c21 18 27 26 19 26 -2 0 -12 -10 -23 -22z"/>
<path d="M214 1208 l-19 -23 23 19 c21 18 27 26 19 26 -2 0 -12 -10 -23 -22z"/>
<path d="M4300 1185 c-24 -25 -42 -45 -39 -45 3 0 25 20 49 45 24 25 42 45 39
45 -3 0 -25 -20 -49 -45z"/>
<path d="M4199 1073 c-13 -16 -12 -17 4 -4 16 13 21 21 13 21 -2 0 -10 -8 -17
-17z"/>
<path d="M415 1040 c10 -11 20 -20 23 -20 3 0 -3 9 -13 20 -10 11 -20 20 -23
20 -3 0 3 -9 13 -20z"/>
<path d="M4139 1013 c-13 -16 -12 -17 4 -4 16 13 21 21 13 21 -2 0 -10 -8 -17
-17z"/>
<path d="M1030 927 c0 -2 15 -16 33 -33 l32 -29 -29 33 c-28 30 -36 37 -36 29z"/>
<path d="M467 889 c7 -7 15 -10 18 -7 3 3 -2 9 -12 12 -14 6 -15 5 -6 -5z"/>
<path d="M494 868 l-19 -23 23 19 c21 18 27 26 19 26 -2 0 -12 -10 -23 -22z"/>
<path d="M4047 861 c-4 -17 -3 -21 5 -13 5 5 8 16 6 23 -3 8 -7 3 -11 -10z"/>
<path d="M1220 748 c41 -45 50 -53 50 -45 0 2 -21 23 -47 47 l-48 45 45 -47z"/>
<path d="M3839 773 c-13 -16 -12 -17 4 -4 16 13 21 21 13 21 -2 0 -10 -8 -17
-17z"/>
<path d="M1310 666 c0 -2 8 -10 18 -17 15 -13 16 -12 3 4 -13 16 -21 21 -21
13z"/>
<path d="M1370 626 c0 -2 8 -10 18 -17 15 -13 16 -12 3 4 -13 16 -21 21 -21
13z"/>
<path d="M3435 550 c-3 -6 1 -7 9 -4 18 7 21 14 7 14 -6 0 -13 -4 -16 -10z"/>
<path d="M1548 543 c7 -3 16 -2 19 1 4 3 -2 6 -13 5 -11 0 -14 -3 -6 -6z"/>
<path d="M2040 376 c0 -2 8 -10 18 -17 15 -13 16 -12 3 4 -13 16 -21 21 -21
13z"/>
<path d="M1898 353 c7 -3 16 -2 19 1 4 3 -2 6 -13 5 -11 0 -14 -3 -6 -6z"/>
<path d="M2298 343 c12 -2 32 -2 45 0 12 2 2 4 -23 4 -25 0 -35 -2 -22 -4z"/>
<path d="M2965 330 c10 -11 20 -20 23 -20 3 0 -3 9 -13 20 -10 11 -20 20 -23
20 -3 0 3 -9 13 -20z"/>
<path d="M2169 313 c-13 -16 -12 -17 4 -4 9 7 17 15 17 17 0 8 -8 3 -21 -13z"/>
<path d="M3010 256 c0 -2 8 -10 18 -17 15 -13 16 -12 3 4 -13 16 -21 21 -21
13z"/>
<path d="M2700 221 c0 -6 4 -13 10 -16 6 -3 7 1 4 9 -7 18 -14 21 -14 7z"/>
<path d="M1914 108 l-29 -33 33 29 c30 28 37 36 29 36 -2 0 -16 -15 -33 -32z"/>
<path d="M1818 53 c7 -3 16 -2 19 1 4 3 -2 6 -13 5 -11 0 -14 -3 -6 -6z"/>
</g>
</svg>
