<?xml version="1.0" encoding="UTF-8" standalone="no"?>
<svg
   version="1.0"
   width="309.000000pt"
   height="305.000000pt"
   viewBox="0 0 309.000000 305.000000"
   preserveAspectRatio="xMidYMid meet"
   id="svg2"
   sodipodi:docname="logo4.svg"
   inkscape:version="1.3.2 (091e20e, 2023-11-25, custom)"
   xmlns:inkscape="http://www.inkscape.org/namespaces/inkscape"
   xmlns:sodipodi="http://sodipodi.sourceforge.net/DTD/sodipodi-0.dtd"
   xmlns="http://www.w3.org/2000/svg"
   xmlns:svg="http://www.w3.org/2000/svg">
  <defs
     id="defs2" />
  <sodipodi:namedview
     id="namedview2"
     pagecolor="#505050"
     bordercolor="#ffffff"
     borderopacity="1"
     inkscape:showpageshadow="0"
     inkscape:pageopacity="0"
     inkscape:pagecheckerboard="1"
     inkscape:deskcolor="#505050"
     inkscape:document-units="pt"
     showgrid="false"
     inkscape:zoom="1.3610656"
     inkscape:cx="258.25354"
     inkscape:cy="187.72057"
     inkscape:window-width="2400"
     inkscape:window-height="1321"
     inkscape:window-x="3741"
     inkscape:window-y="1032"
     inkscape:window-maximized="1"
     inkscape:current-layer="svg2" />
  <g
     transform="translate(0.000000,305.000000) scale(0.100000,-0.100000)"
     fill="#000000"
     stroke="none"
     id="g2">
    <path
       d="M1558 2953 c6 -2 18 -2 25 0 6 3 1 5 -13 5 -14 0 -19 -2 -12 -5z"
       id="path1" />
    <path
       d="M1140 2935 c-14 -8 -41 -15 -60 -15 -19 0 -62 -12 -95 -26 -33 -14 -91 -37 -129 -50 -37 -13 -82 -35 -98 -49 -38 -32 -23 -32 36 1 25 14 50 23 56 19 5 -3 10 -2 10 3 0 12 58 33 64 24 9 -15 -24 -43 -85 -71 -114 -54 -212 -111 -232 -135 -11 -14 -26 -22 -33 -19 -16 6 -19 33 -3 33 5 0 33 23 61 50 28 28 47 50 43 50 -8 0 -64 -37 -87 -59 -22 -22 -67 -58 -100 -82 -16 -11 -28 -27 -28 -35 0 -8 -4 -14 -10 -14 -16 0 -144 -135 -175 -186 -36 -58 -88 -165 -104 -213 -17 -51 3 -65 35 -26 l24 30 0 -25 c1 -24 1 -25 16 -5 8 11 13 27 11 36 -5 18 45 79 50 63 2 -5 -21 -53 -51 -107 -29 -54 -66 -131 -82 -172 -16 -41 -33 -73 -39 -72 -5 2 -9 27 -9 55 2 56 -10 68 -51 52 -17 -7 -25 -17 -25 -34 0 -13 -9 -43 -20 -67 -14 -32 -20 -66 -20 -126 0 -79 1 -82 30 -103 17 -12 30 -30 30 -41 0 -11 7 -19 16 -19 11 0 14 -5 10 -16 -3 -9 -6 -49 -6 -90 0 -56 -3 -74 -14 -74 -16 0 -36 70 -36 124 0 39 -10 45 -30 21 -10 -12 -12 -54 -7 -178 6 -164 22 -267 58 -365 10 -28 29 -78 40 -110 48 -128 111 -248 157 -296 26 -27 41 -46 35 -42 -24 13 -12 -9 17 -34 17 -13 30 -27 30 -31 0 -13 54 -69 67 -69 7 0 13 -4 13 -10 0 -5 9 -10 20 -10 11 0 20 -5 20 -11 0 -5 5 -7 12 -3 8 5 9 2 5 -10 -5 -13 -2 -17 11 -15 41 4 56 -5 128 -71 41 -39 79 -70 84 -70 15 0 163 -72 182 -88 9 -8 32 -18 50 -22 l33 -8 -32 -1 c-18 -1 -33 -5 -33 -10 0 -10 95 -46 160 -60 25 -5 81 -18 125 -28 63 -14 122 -18 280 -18 110 0 209 4 220 9 11 5 36 10 55 12 19 2 49 5 65 8 17 3 59 8 95 12 36 4 74 13 85 20 11 8 27 14 36 14 9 0 43 14 74 30 31 17 63 30 71 30 8 0 14 7 14 15 0 8 9 15 20 15 11 0 28 9 37 20 10 11 21 20 25 20 4 0 34 19 65 43 227 169 285 203 318 190 28 -10 52 15 58 62 3 27 13 55 26 69 11 12 30 49 41 81 19 58 33 91 51 127 5 10 9 28 9 40 0 25 64 216 76 226 4 4 4 -1 1 -11 -4 -11 -10 -31 -13 -45 -6 -29 -12 -46 -38 -106 -19 -43 -14 -56 14 -38 26 16 29 15 23 -8 -3 -12 0 -20 7 -20 24 0 66 59 85 117 11 32 23 63 28 70 5 7 18 45 29 85 32 120 33 122 17 113 -11 -7 -12 -6 -2 6 6 8 17 45 24 83 11 58 11 70 -2 80 -7 6 -14 19 -15 29 -2 46 -5 57 -14 57 -16 0 -38 -60 -45 -122 -4 -32 -11 -61 -17 -64 -7 -5 -9 5 -4 29 8 45 -9 58 -19 14 -7 -28 -9 -23 -17 43 -5 41 -12 127 -17 190 -4 63 -16 140 -25 170 -9 30 -13 67 -10 82 3 14 -1 39 -9 55 -8 15 -17 53 -20 83 -6 67 -42 166 -68 188 -10 9 -19 25 -19 35 0 10 -24 61 -52 113 -29 52 -61 110 -71 129 -21 40 -37 45 -38 13 l-1 -23 -6 22 c-4 13 -27 40 -52 60 -25 21 -68 61 -96 88 -88 87 -128 121 -160 138 -17 9 -36 23 -43 31 -19 23 -100 68 -114 63 -6 -2 13 -20 43 -40 30 -20 69 -48 85 -62 28 -24 29 -25 5 -16 -14 5 -59 25 -100 45 -41 20 -84 36 -95 36 -11 0 -32 7 -47 14 -61 32 -244 87 -306 92 -41 3 -71 11 -78 20 -13 16 -34 19 -34 4 0 -17 -21 -11 -39 11 -12 16 -23 19 -44 14 -15 -4 -24 -11 -21 -16 7 -12 -13 -11 -53 3 -39 14 -43 28 -9 28 14 0 28 5 31 10 11 17 -315 12 -345 -5z m-180 -85 c0 -5 -4 -10 -10 -10 -5 0 -10 5 -10 10 0 6 5 10 10 10 6 0 10 -4 10 -10z m-396 -239 c3 -5 -8 -11 -24 -13 -24 -4 -27 -2 -19 9 13 15 35 17 43 4z m-74 -60 c0 -5 -12 -17 -27 -26 l-28 -18 24 27 c26 28 31 31 31 17z m1610 -66 c78 -16 125 -43 136 -77 4 -13 22 -45 40 -73 30 -45 35 -63 49 -185 9 -74 19 -176 22 -226 7 -108 -14 -891 -27 -1046 -15 -178 -53 -236 -203 -312 -65 -33 -84 -38 -197 -47 -69 -6 -243 -13 -387 -16 -220 -4 -270 -2 -305 11 -24 8 -81 23 -128 32 -85 17 -85 17 -156 88 -54 54 -76 85 -93 129 -29 78 -58 190 -67 254 -6 50 -5 54 23 81 17 15 34 43 38 62 4 19 19 63 32 98 35 86 55 96 199 97 131 0 134 -1 190 -104 55 -100 122 -189 154 -206 33 -17 220 -19 255 -2 34 16 75 60 75 79 0 11 14 76 30 146 26 105 31 146 30 237 -2 150 9 576 15 595 3 8 9 74 14 147 10 134 27 198 65 236 22 22 98 23 196 2z m-1766 -110 c-4 -8 -11 -12 -16 -9 -6 4 -5 10 3 15 19 12 19 11 13 -6z m-40 -56 c-24 -26 -34 -24 -21 5 6 13 17 21 25 19 10 -4 9 -10 -4 -24z m-237 -936 c-1 -16 2 -50 6 -78 5 -31 4 -42 -1 -30 -14 31 -25 135 -14 135 5 0 9 -12 9 -27z m2878 -270 c-9 -30 -18 -53 -20 -51 -2 2 4 48 13 103 15 90 17 95 20 52 2 -26 -4 -73 -13 -104z m-1830 -1023 c7 -12 -22 -12 -50 0 -17 7 -15 9 12 9 17 1 35 -3 38 -9z m225 -28 c19 -4 112 -7 205 -6 94 1 154 -2 135 -5 -19 -4 -98 -8 -175 -10 -77 -1 -143 -5 -147 -7 -5 -3 -8 -1 -8 5 0 5 -35 12 -77 16 -120 11 -165 26 -58 19 50 -3 106 -9 125 -12z m479 14 c-2 -2 -22 -6 -44 -9 -27 -4 -35 -3 -25 3 14 9 79 15 69 6z"
       id="path2" />
  </g>
  <path
     style="fill:#ffffff;stroke-width:0.734718"
     d="m 172.29148,339.07388 c -3.23276,-0.28405 -8.35742,-1.22216 -11.38814,-2.0847 -3.03071,-0.86253 -9.21482,-2.38533 -13.74246,-3.38399 -4.52764,-0.99867 -9.48699,-2.46143 -11.02078,-3.2506 -3.49319,-1.79732 -16.15493,-14.66429 -19.24808,-19.56006 -3.75531,-5.94382 -10.87878,-30.06052 -12.15637,-41.15569 -0.48575,-4.21856 -0.40145,-4.55008 1.93106,-7.59374 1.34144,-1.75042 3.12862,-4.11453 3.9715,-5.25358 0.84289,-1.13904 2.61598,-5.4915 3.9402,-9.67214 6.06858,-19.15892 7.90143,-20.45874 28.84864,-20.45874 17.00637,0 17.53601,0.26472 24.25536,12.12286 8.31824,14.6798 17.18037,26.59022 21.45492,28.83472 3.03882,1.59564 25.25454,2.24815 31.61138,0.92847 3.80874,-0.79069 4.89033,-1.43945 8.62336,-5.17248 2.50951,-2.50951 4.2684,-4.90849 4.2684,-5.82175 0,-0.85434 1.4637,-8.1077 3.25266,-16.11855 4.47365,-20.03271 4.82851,-23.29158 4.83447,-44.39885 0.007,-23.34868 1.22783,-63.45256 2.19655,-72.13292 0.40588,-3.63686 1.24433,-12.29593 1.86324,-19.24238 1.74032,-19.533046 4.7832,-28.468358 10.51578,-30.879167 5.73828,-2.413207 26.16784,0.273127 34.60963,4.550907 4.05502,2.054834 4.61312,2.714173 9.34396,11.03887 5.95222,10.47392 6.79831,12.52264 7.91661,19.16926 1.19674,7.1129 3.72918,30.99362 4.47296,42.17973 0.75724,11.38877 -1.65785,106.03804 -3.37127,132.12228 -1.86964,28.46255 -6.39248,36.36492 -26.62675,46.52257 -8.49062,4.26231 -12.77518,5.4299 -23.66005,6.44764 -17.5827,1.64397 -76.29612,3.17588 -86.69678,2.26203 z"
     id="path3"
     transform="scale(0.75)" />
  <path
     style="fill:#800000;stroke-width:0.734718"
     d="m 174.49563,405.203 c -9.43762,-0.55427 -26.66626,-3.77109 -39.67479,-7.40782 -4.50792,-1.26025 -13.59229,-5.15171 -13.59229,-5.8225 0,-0.32846 1.73577,-0.8459 3.85727,-1.14984 l 3.85727,-0.55263 -4.15325,-1.25655 c -2.28429,-0.69111 -6.21674,-2.51006 -8.73877,-4.04211 -4.76139,-2.89239 -21.06644,-10.6325 -22.398066,-10.6325 -0.418062,0 -4.881881,-3.67255 -9.919595,-8.16123 -9.513972,-8.47709 -13.375055,-10.89794 -17.425068,-10.92531 -2.044759,-0.0138 -2.387835,-0.27673 -2.387835,-1.82988 0,-1.21396 -0.325515,-1.68882 -0.984366,-1.436 -0.541401,0.20776 -1.408442,-0.13324 -1.926758,-0.75777 -0.518316,-0.62453 -1.693095,-1.13551 -2.61062,-1.13551 -0.917525,0 -1.858535,-0.49594 -2.091134,-1.10208 -0.232599,-0.60615 -0.903117,-1.10208 -1.49004,-1.10208 -1.316923,0 -7.477728,-6.07073 -8.845989,-8.71666 -0.552361,-1.06814 -2.579696,-3.37583 -4.505187,-5.12818 -2.360203,-2.14798 -3.213503,-3.36371 -2.618864,-3.73122 0.602636,-0.37244 -0.370014,-1.94831 -3.070605,-4.97492 C 27.62628,316.2036 19.4576,300.42101 11.513046,278.4583 3.1768219,255.41281 1.5219518,245.98488 0.9380011,218.21138 0.56192671,200.32476 0.59231937,199.79529 2.0977734,198.00662 c 1.3141955,-1.56142 1.6566673,-1.67157 2.2843609,-0.73471 0.4061166,0.60614 0.7486211,2.75519 0.7611213,4.77567 0.044424,7.18058 3.1815182,16.32775 5.3516424,15.60437 1.245965,-0.41531 1.797048,-4.16075 2.175132,-14.78327 0.308752,-8.67458 0.225904,-9.49397 -0.992136,-9.81249 -0.730959,-0.19115 -1.6864371,-1.43054 -2.1232823,-2.7542 -0.436846,-1.32365 -2.2425937,-3.72474 -4.0127721,-5.33574 -2.647567,-2.40951 -3.3120646,-3.55299 -3.7459133,-6.44611 -0.80249768,-5.35144 0.2447483,-16.86366 1.9615025,-21.56252 0.8311492,-2.2749 2.0801201,-6.28523 2.775491,-8.91185 1.113977,-4.20781 1.586038,-4.95039 3.9700412,-6.24511 4.235817,-2.3004 5.176882,-1.22901 5.840524,6.64935 0.300871,3.57176 0.83881,6.78588 1.19542,7.14249 0.942742,0.94274 3.102002,-2.53211 6.287439,-10.11825 1.527124,-3.63685 6.048383,-13.00142 10.04724,-20.81014 3.998857,-7.80873 7.27065,-14.6934 7.27065,-15.29928 0,-1.80267 -2.254211,-0.82249 -4.502886,1.95796 -1.193148,1.47531 -2.375109,4.10967 -2.754115,6.13839 -0.365171,1.95466 -1.196096,4.08608 -1.846502,4.73649 -1.086928,1.08693 -1.183189,0.94702 -1.190392,-1.73008 l -0.0078,-2.91264 -3.218734,3.48992 c -4.626606,5.0164 -5.97369,4.6912 -4.729639,-1.14176 1.040861,-4.88028 12.220007,-27.102813 16.514968,-32.829385 4.580123,-6.106786 17.602963,-19.656194 20.166369,-20.981784 1.082789,-0.559932 2.17117,-1.82473 2.418624,-2.810663 0.25893,-1.031659 2.556614,-3.434162 5.412795,-5.65972 2.729585,-2.126914 7.111933,-5.733114 9.738551,-8.013778 5.201388,-4.516307 9.06985,-7.361469 10.009121,-7.361469 0.972106,0 -7.95501,8.76376 -10.616094,10.421821 -1.91547,1.193487 -2.35489,1.876785 -2.032635,3.160754 0.353341,1.407821 0.164746,1.590995 -1.341596,1.303039 -1.176625,-0.224926 -2.319731,0.231943 -3.477755,1.389967 l -1.725022,1.725022 2.924746,0.238139 c 2.184068,0.177831 3.211131,-0.115534 4.055609,-1.158419 0.621976,-0.768106 1.51457,-1.268654 1.983556,-1.112328 0.468978,0.156327 2.115497,-0.851021 3.658935,-2.238551 4.420183,-3.973695 11.391214,-8.192719 24.480442,-14.816109 13.68166,-6.923176 18.36796,-10.01018 18.36796,-12.099514 0,-0.781807 -0.27899,-1.593897 -0.61999,-1.804643 -1.04116,-0.64347 -6.00086,1.039558 -7.50962,2.548316 -0.78195,0.781951 -2.25654,1.421729 -3.27686,1.421729 -1.02033,0 -4.19514,1.178402 -7.05513,2.618671 -2.85999,1.440268 -5.345824,2.472837 -5.52406,2.294596 -0.57189,-0.571886 6.21099,-4.689594 10.94763,-6.646014 14.71885,-6.079478 26.57292,-10.310462 31.40598,-11.209484 3.03072,-0.563759 7.09516,-1.537919 9.03209,-2.164799 6.59602,-2.134775 36.40696,-3.394238 44.23501,-1.868856 l 2.93887,0.572673 -2.93887,0.544307 c -4.16812,0.771976 -4.77567,1.015916 -4.77567,1.91751 0,1.062059 5.53071,3.464994 9.39886,4.083537 2.54489,0.406942 3.09135,0.287478 3.09135,-0.675805 0,-1.285546 2.1349,-2.691268 4.08728,-2.691268 0.68476,0 2.52587,1.157182 4.09138,2.571515 2.62997,2.376029 5.03069,3.335109 5.05753,2.020476 0.006,-0.303072 0.31206,-1.026437 0.67971,-1.607478 0.55649,-0.879485 1.13918,-0.731816 3.47866,0.881604 2.1366,1.473497 4.61701,2.20664 10.34805,3.058609 11.64731,1.731474 26.66899,6.062479 38.31274,11.046208 3.10083,1.327211 7.33706,2.777521 9.41385,3.222913 2.0768,0.445392 8.90574,3.132695 15.17544,5.971785 6.2697,2.839089 11.74847,5.16198 12.17505,5.16198 1.90515,0 0.27007,-1.642724 -6.6674,-6.698575 -9.32962,-6.799186 -11.8137,-8.821374 -11.37511,-9.259974 0.60083,-0.600828 8.8519,4.141518 12.61252,7.249114 1.98372,1.639256 5.76197,4.378313 8.3961,6.086793 2.63413,1.708481 8.76218,6.882323 13.61786,11.497427 4.8557,4.615105 12.34627,11.62665 16.64573,15.581213 5.31104,4.88501 8.24689,8.182652 9.15758,10.286058 l 1.3404,3.095945 0.2404,-3.122553 c 0.41488,-5.388692 1.06499,-4.739034 8.29141,8.28575 6.78106,12.222068 12.43663,23.747788 12.43663,25.345138 0,0.68742 1.02408,2.53516 2.27571,4.10609 4.37251,5.48788 7.42129,13.61175 9.17013,24.43496 0.61183,3.7864 1.62541,8.24981 2.25243,9.9187 0.62702,1.66887 1.39922,6.17525 1.71601,10.01415 0.31678,3.8389 1.25853,10.12075 2.09279,13.95965 0.83425,3.8389 2.37171,16.38728 3.41658,27.88528 1.04486,11.498 2.0903,21.66466 2.3232,22.59259 0.58635,2.33621 1.52417,2.10899 2.09909,-0.50859 0.86367,-3.93228 1.83865,-3.18055 1.83865,1.41765 0,4.05735 0.71102,5.53849 1.80725,3.76473 0.2335,-0.37781 1.04677,-4.09732 1.80728,-8.26558 2.61399,-14.32727 5.76436,-19.19764 6.84127,-10.5764 0.36003,2.88218 1.07587,4.91632 2.12204,6.02991 1.39175,1.48144 1.52009,2.19891 1.08355,6.05735 -0.57479,5.08052 -3.11933,14.69718 -4.24898,16.05832 -0.57705,0.6953 -0.44949,0.93468 0.49809,0.93468 1.07227,0 1.19358,0.4359 0.76679,2.7552 -1.05784,5.7484 -5.03528,19.03067 -6.97578,23.29486 -1.11146,2.44242 -2.43911,5.76325 -2.95035,7.37963 -1.6218,5.12771 -5.99409,12.79306 -8.60441,15.08496 -2.91455,2.559 -4.03646,2.30094 -3.41899,-0.78643 0.49658,-2.48287 -0.44186,-2.77728 -3.42213,-1.0736 -3.77493,2.15795 -3.84661,1.01038 -0.45011,-7.20509 4.34375,-10.50666 7.41144,-24.44147 3.88519,-17.64828 -2.02975,3.91024 -8.44157,23.8374 -9.21472,28.63826 -0.40001,2.48383 -1.44502,5.92291 -2.32225,7.64242 -0.87723,1.7195 -2.74304,6.298 -4.14624,10.17442 -2.82218,7.7964 -5.40131,13.25424 -7.56045,15.99915 -0.78098,0.99286 -1.96597,4.25935 -2.6333,7.25885 -1.69639,7.62497 -3.045,9.14208 -8.12669,9.14208 -6.2283,0 -12.39662,3.58967 -36.65817,21.33328 -6.46552,4.72854 -12.74737,9.10525 -13.95965,9.72603 -1.21229,0.62077 -3.00094,1.9816 -3.97478,3.02405 -0.97384,1.04244 -2.8988,2.107 -4.27769,2.36568 -1.71491,0.32172 -2.7167,1.02172 -3.17054,2.2154 -0.36491,0.95979 -1.06468,1.74508 -1.55504,1.74508 -0.49035,0 -4.76298,1.81842 -9.49473,4.04095 -4.73174,2.22252 -9.14593,4.04095 -9.80931,4.04095 -0.66338,0 -2.43281,0.62298 -3.93207,1.3844 -3.45024,1.75225 -7.81357,2.60483 -22.93068,4.48055 -6.66757,0.82731 -14.2719,1.974 -16.89852,2.54822 -5.96335,1.30366 -36.64112,1.99093 -51.06294,1.14394 z m 34.16441,-4.09346 c 22.95002,-0.87253 17.54983,-2.38644 -8.81662,-2.47167 -9.75411,-0.0315 -21.74099,-0.53128 -27.55194,-1.14867 -12.011,-1.27613 -20.84236,-1.4523 -19.78472,-0.39467 0.39265,0.39266 5.9276,1.37568 12.29987,2.18448 6.37227,0.8088 12.15101,1.81436 12.84163,2.23457 0.78302,0.47642 4.71273,0.62566 10.43967,0.39647 5.05118,-0.20215 14.30864,-0.56238 20.57211,-0.80051 z m 28.41016,-3.33491 c 5.28771,-0.92082 6.21385,-2.16537 1.52962,-2.0555 -3.99707,0.0937 -6.60699,0.82873 -6.98658,1.9675 -0.36471,1.09412 -0.32439,1.09477 5.45696,0.088 z m -89.75915,-2.86346 c 0,-0.82847 -1.06551,-1.15728 -4.29189,-1.32443 -4.64818,-0.24081 -5.15398,0.76938 -0.99865,1.99451 3.17115,0.93496 5.29054,0.66652 5.29054,-0.67008 z m 83.39055,-55.88505 c 33.03929,-1.25663 40.2223,-2.17742 49.2176,-6.30923 12.716,-5.84085 20.70972,-12.37446 24.64765,-20.14558 5.11411,-10.09222 6.4978,-29.65784 8.45135,-119.50368 0.8328,-38.30153 0.57965,-45.25399 -2.61576,-71.83908 -2.06376,-17.17009 -2.72287,-19.66253 -7.22633,-27.32655 -1.85373,-3.154682 -4.14911,-7.22359 -5.10085,-9.042018 -2.30114,-4.396612 -6.45642,-6.870707 -15.58574,-9.279895 -6.03299,-1.59208 -9.08261,-1.951607 -17.1537,-2.022283 l -9.81624,-0.08596 -2.74282,3.08765 c -4.74748,5.344318 -6.34662,12.198704 -8.53587,36.587146 -1.9274,21.47151 -2.43864,33.48409 -2.90796,68.32882 -0.25037,18.58838 -0.76524,36.27672 -1.14416,39.30744 -0.37891,3.03071 -2.18177,12.28816 -4.00635,20.57211 -1.82459,8.28395 -3.46894,15.76212 -3.65413,16.61814 -0.41167,1.90293 -5.69275,7.29261 -8.76277,8.94297 -1.74107,0.93595 -4.89841,1.27131 -14.0034,1.4874 -14.66558,0.34805 -19.58239,-0.44855 -22.98743,-3.72434 -4.20471,-4.0451 -10.45779,-12.84687 -16.53297,-23.2716 -6.64307,-11.39919 -8.57807,-13.73145 -12.23548,-14.74749 -1.43731,-0.39928 -8.09121,-0.72782 -14.78647,-0.73006 -14.05505,-0.005 -18.32343,0.88134 -21.90822,4.54796 -2.29837,2.35082 -5.72228,10.16999 -8.17575,18.67088 -1.65144,5.72197 -2.41551,7.11103 -6.13317,11.14978 -2.93004,3.1831 -3.0347,3.46564 -2.89421,7.81342 0.28601,8.85154 5.94351,30.25131 10.52041,39.79395 2.18951,4.56505 4.38824,7.56483 9.51625,12.98329 8.55859,9.04332 11.55286,11.00413 19.25751,12.61079 3.36194,0.70107 9.91478,2.30354 14.56188,3.56104 12.45544,3.37043 26.09628,3.73894 72.73713,1.96498 z M 391.9944,256.9481 c 1.21838,-4.67771 1.50833,-17.05005 0.37296,-15.91467 -0.88434,0.88433 -3.72199,18.0259 -3.64122,21.99578 l 0.0598,2.93887 1.06424,-2.43682 c 0.58534,-1.34026 1.55024,-4.30268 2.14423,-6.58316 z M 8.4771066,229.41584 c -0.5380916,-8.89319 -0.8725626,-10.8371 -1.8646405,-10.8371 -1.2316506,0 -1.4641772,2.69594 -0.7314819,8.48087 0.7367829,5.81721 1.9605976,10.62181 2.705558,10.62181 0.214875,0 0.1656291,-3.71951 -0.1094356,-8.26558 z M 38.996595,98.141429 c 2.438905,-2.438906 2.686602,-3.569402 0.929782,-4.243558 -1.470835,-0.564418 -4.659891,2.831899 -4.659891,4.962729 0,2.01422 1.234781,1.77616 3.730109,-0.719171 z m 5.854908,-8.201347 c 0.451053,-0.842795 0.656313,-1.696141 0.456135,-1.896323 -0.65441,-0.654406 -3.428686,1.249051 -3.428686,2.352459 0,1.609547 2.03408,1.297417 2.972551,-0.456136 z M 62.135011,70.130316 c 1.973561,-1.357845 3.254932,-2.804031 3.254932,-3.673592 0,-2.177427 -0.989371,-1.751919 -4.314737,1.855677 -4.424528,4.800046 -4.095325,5.364738 1.059805,1.817915 z M 128.20837,26.807162 c 0,-0.600609 -0.7439,-1.197667 -1.65312,-1.326796 -1.60815,-0.228395 -2.29487,1.184913 -1.1379,2.341881 0.85597,0.855971 2.79102,0.152199 2.79102,-1.015085 z"
     id="path4"
     transform="scale(0.75)" />
</svg>
